<svg width="190px" height="102px" viewBox="0 0 190 102" version="1.1" xmlns="http://www.w3.org/2000/svg" xmlns:xlink="http://www.w3.org/1999/xlink">
    <!-- Generator: Sketch 52.6 (67491) - http://www.bohemiancoding.com/sketch -->
    <title>logos / Michelin-guide vertical</title>
    <desc>Created with Sketch.</desc>
    <defs>
        <polygon id="path-1" points="0.0868238011 0.305279152 102.88802 0.305279152 102.88802 72.6084297 0.0868238011 72.6084297"></polygon>
    </defs>
    <g id="logos-/-Michelin-guide-vertical" stroke="none" stroke-width="1" fill="none" fill-rule="evenodd">
        <g id="Group-28">
            <g id="Group-3" transform="translate(34.415094, 0.055145)">
                <mask id="mask-2" fill="white">
                    <use xlink:href="#path-1"></use>
                </mask>
                <g id="Clip-2"></g>
                <path d="M2.37510755,18.9773343 C2.38514528,19.0022035 2.39482453,19.0263519 2.40593774,19.0512212 C2.4568434,19.1679986 2.52925849,19.3428042 2.62103208,19.564465 C3.13905094,20.8093696 4.21667358,23.4000975 5.51261698,25.7197866 C6.24250377,27.0270445 6.94299434,28.0708325 7.63416415,28.8731364 C7.09893774,29.6466064 6.35865472,30.9347618 5.96216415,32.584783 C5.55205094,34.2931929 5.73452264,36.5047548 6.4619,38.6518007 C6.76482453,39.5460127 7.15020189,40.3850799 7.60476792,41.1513413 C7.60082453,41.1542247 7.59652264,41.157829 7.59257925,41.1607124 C7.59688113,41.1686417 7.60082453,41.1762106 7.60512642,41.1837795 C7.5829,41.2508184 7.56712642,41.3203802 7.55780566,41.3931859 C7.02759811,45.6029385 8.82148491,49.7074473 12.3562019,52.3713413 C12.9215415,52.7973625 13.5112585,53.1689597 14.1163906,53.4882954 C14.630466,55.0853343 15.7023528,56.5645145 17.2295226,57.7784226 C18.261617,58.5976664 19.4657868,59.2622883 20.7147679,59.7106558 C20.7230132,59.7232707 20.730183,59.7355251 20.7384283,59.7481399 C22.0673528,61.6475746 24.1093151,63.0316028 26.6431264,63.7506488 C27.2790887,63.9312212 27.9293906,64.0624155 28.5843528,64.147836 C28.614466,64.1867618 28.6467302,64.2242459 28.6832962,64.2592071 C29.9132774,65.4572565 31.5268434,66.3640834 33.3687679,66.8960693 C33.0615415,69.3354191 33.3572962,71.2085428 33.8638434,72.6084297 L102.88802,72.6084297 C102.9059,70.327306 102.302202,68.0512283 101.066843,66.01267 C101.034938,65.9593272 100.998372,65.9113908 100.959296,65.865617 C101.390919,62.670458 100.658881,59.4666488 98.8592585,56.7641894 C96.9076358,53.8350233 93.9400509,51.8451223 90.4999755,51.1610375 C90.1522396,51.0925569 89.794466,51.0359703 89.435617,50.9945216 C89.3875792,50.9887548 89.340617,50.9876735 89.2929377,50.9880339 C85.7804472,47.557518 82.0650509,45.8033343 80.7490321,45.2511647 C80.7909755,45.0662671 80.8279,44.884253 80.8680509,44.715935 C80.9153717,44.7029597 80.962334,44.6874615 81.0082208,44.6679986 C84.7522962,43.0305922 86.9799566,40.2542459 87.4485038,36.6409951 C87.8220509,33.7835534 87.0351642,30.6175887 85.4327113,28.4085498 C85.4402396,28.3703449 85.4466925,28.3325004 85.4509943,28.2928537 C85.8327868,24.429829 85.253466,21.0602247 83.7291642,18.2770304 C82.4873528,16.0099633 80.6027679,14.2006346 78.4249377,13.1820763 C78.4149,13.1777512 78.4041453,13.1745074 78.3948245,13.1701823 C77.7843151,11.0981046 75.1529943,9.51295972 72.3413528,9.58973004 C70.1237302,9.64992085 67.7035604,10.6951505 66.7937113,12.4100481 C63.4167302,13.6326064 58.178466,16.7956876 56.5953717,24.7938572 C54.2612396,26.5577724 52.7286925,29.1474191 52.3590887,31.9890021 C51.9482585,35.1427124 53.0097491,38.299306 55.1470698,40.6636876 C52.9832208,40.6712565 49.5101642,40.8521894 45.4201453,41.6883731 C45.3778434,41.6966629 45.3384094,41.7071152 45.2982585,41.7200905 C42.1442585,39.4825781 38.079334,38.6272919 34.4467491,39.5845781 C34.3004849,39.6231435 34.1692774,39.6894615 34.0552774,39.7759633 C33.0468434,39.468882 31.9452019,39.2421753 30.7331453,39.0944014 C30.6585792,39.0850304 30.5840132,39.0832283 30.5123151,39.0889951 C29.9842585,37.3758996 29.0787113,35.8224721 27.8315226,34.5699986 C27.7691453,34.5058431 27.6246736,34.3919491 27.6228811,34.3843802 C27.6192962,34.3883449 27.6153528,34.39267 27.6117679,34.3966346 C27.4260698,33.1441611 27.0718811,31.7781541 26.9259755,31.2818502 C26.565334,30.0560481 26.0096736,28.6983307 24.399334,27.076783 C23.3740509,26.0452495 22.2802962,25.4213555 21.5310509,25.0760693 C21.6830509,24.6659067 21.7726736,24.3155746 21.8174849,24.1101329 C21.8350509,24.0293979 21.8483151,23.9475816 21.8569189,23.8650445 C21.8612208,23.8261187 22.2612962,19.9609314 22.7176547,17.6664721 C22.7241075,17.638359 22.7294849,17.6102459 22.7334283,17.5821329 C23.9831264,9.71659929 23.9942396,9.60162403 24.0024849,9.51764523 C24.0042774,9.50178657 24.0060698,9.48592792 24.0071453,9.47042968 C24.0619943,8.76291731 23.8192962,8.07522827 23.3224283,7.53495265 C22.7215981,6.88222473 21.8056547,6.50774417 20.8097679,6.50774417 C19.4120132,6.50774417 18.1630321,7.22570883 17.3815226,8.47782191 C16.9233717,9.21200565 16.5817302,10.0961258 16.3440509,10.8404014 C15.0427302,8.30914346 13.3424094,4.97125654 12.1156547,2.54992792 C12.0941453,2.50739788 12.0708434,2.46594912 12.0475415,2.42486078 C11.6220132,1.70509399 10.6458434,0.864945583 9.29576792,0.864585159 C8.89139057,0.864585159 8.48773019,0.939553357 8.09052264,1.08804806 C7.49829623,0.582733569 6.77020189,0.305207067 5.97363585,0.305207067 C5.58539057,0.305207067 5.1889,0.37260636 4.79456038,0.505602827 C3.41365472,0.969828975 2.61171132,2.20860636 2.62031509,3.68057809 C1.54269245,4.09038021 0.808503774,4.94638728 0.600937736,6.04495972 C0.4579,6.80112933 0.609541509,7.45421767 0.682315094,7.76850742 C0.692711321,7.81536254 0.709201887,7.88528481 0.7429,7.99629541 C0.708843396,8.04387138 0.675862264,8.09288905 0.644315094,8.14298799 C-0.125364151,9.35761696 -0.521496226,11.5944085 2.37510755,18.9773343" id="Fill-1" fill="#1D1D1B" mask="url(#mask-2)"></path>
            </g>
            <path d="M90.1445679,42.9559845 C90.1571151,42.9567053 91.1576623,43.0280693 91.7567,43.2605428 C92.7680019,43.6505216 94.7923981,45.5971717 95.8868698,45.7654898 C96.0783038,45.7881965 96.5794736,45.6649314 96.0342094,45.2796382 C95.8832849,45.1704297 94.6188887,44.0390587 95.0874358,43.4544509 C95.0928132,43.4447194 95.0989075,43.4407548 95.1053604,43.429942 C95.2713415,43.195306 95.4907377,43.1430445 95.7248321,43.1895392 C97.3097189,43.5842035 98.6289642,43.8134332 99.0838887,43.8779491 C99.3627943,43.9172353 99.5653415,43.9244438 99.6797,43.8278502 C99.7911906,43.7298148 99.7080208,43.6609739 99.4011528,43.5715887 C96.9566057,42.9116523 94.2629075,41.8538078 92.3690019,40.4279703 C89.8333981,38.4715887 88.4804547,35.3896028 88.8808887,32.3209527 C89.1737755,30.063617 90.3356434,28.0726346 92.1693226,26.6478784 C92.8984925,26.1090445 94.0589264,25.7068113 94.3926811,25.5871505 C95.2810208,25.2649314 93.826266,25.0295746 93.7194358,25.0122742 C93.3458887,24.9513625 93.3247377,24.564988 93.6305302,23.3907265 C95.3233226,17.9274191 99.0699075,15.5154615 102.177662,14.455094 C102.722926,14.2882177 103.557851,14.0492565 104.124625,13.9620339 C104.979983,13.8301187 104.66236,13.4415816 103.679021,13.3266064 C103.679021,13.3266064 103.3467,13.306783 103.51053,13.0912495 C103.538851,13.0580905 103.723832,12.8411152 103.999153,12.6627053 C104.698209,12.2157795 105.709153,11.8748184 106.814379,11.8449032 C108.812606,11.7915604 110.533719,12.9117583 110.736983,13.9483378 C110.736983,13.9483378 110.80904,14.1555816 110.565983,14.163511 C110.182757,14.1768466 109.873379,14.3397583 110.403228,14.6025074 C110.524757,14.6645004 111.058191,14.8281329 111.808153,15.1737795 C111.842209,15.1954049 111.879492,15.2152283 111.917134,15.2332495 C113.423153,15.9371576 118.113285,18.8036099 117.770568,26.908465 L117.770568,26.9081046 C117.759455,27.1517512 117.738304,27.3939562 117.725398,27.6365216 C117.7107,27.8585428 117.67987,28.0838078 117.651549,28.3072707 C117.21204,28.2550092 117.019889,28.4445922 117.334643,28.7610445 C117.56336,28.9891929 118.130134,29.6696735 118.45636,30.2099491 C119.513549,31.9641329 120.036587,34.2838219 119.757681,36.418253 C119.381983,39.3106558 117.603153,41.0731293 115.821455,42.1288113 C115.023455,42.583306 113.179021,43.5034686 110.874285,44.0210375 C110.403945,44.1273625 110.624417,44.7433272 112.805474,44.7119703 C112.989738,44.7325145 113.38587,44.7534191 113.501304,44.9689527 C113.756191,45.4400269 113.318115,46.3645145 112.372058,46.9256947 C111.555058,47.4111859 112.209304,47.5113837 113.343926,47.1700622 C113.675172,47.1156382 114.546304,47.4692141 114.660304,47.5167901 C116.504738,48.3367548 121.148266,50.7483519 124.639247,55.4767548 C127.054398,58.9634968 127.931983,61.7156947 127.177002,63.4352777 C126.443172,65.1090869 124.25853,65.4172495 124.24204,65.4190516 C124.230209,65.4212141 124.217304,65.4222954 124.205474,65.4240975 C115.767681,66.7457724 101.135172,64.4156311 91.0411528,61.4298784 C89.2350774,60.8978926 86.5370774,59.9438502 84.269266,58.9332212 C86.4990774,54.0826346 85.6308132,47.9456947 81.9738509,43.8015392 C81.9247377,43.7471152 81.875266,43.6937724 81.8254358,43.6393484 C85.4196623,43.0280693 88.414134,42.9383237 90.1445679,42.9559845" id="Fill-4" fill="#FEFEFE"></path>
            <path d="M131.430672,58.0603463 C133.051766,60.4942898 133.633955,63.4169682 133.068257,66.2891873 C132.59254,68.7101555 131.314162,70.8849541 129.477974,72.4737032 C129.53103,70.4672226 129.177917,68.1230247 127.704162,66.269364 C128.289219,65.8029753 128.829464,65.1834064 129.196917,64.3587562 C130.31254,61.8484028 129.388351,58.4265371 126.450162,54.188311 C126.444068,54.1793004 126.437615,54.1699293 126.431162,54.1616396 C126.368785,54.0769399 126.304615,53.9944028 126.240804,53.9107845 C128.347294,54.7102049 130.152294,56.1414488 131.430672,58.0603463" id="Fill-6" fill="#FEFEFE"></path>
            <path d="M80.3146132,45.2812961 C83.6833491,49.0996283 84.2501226,54.9143491 81.6643302,59.106441 C78.7619906,63.8092537 73.5602925,66.1357908 68.7167264,64.8948509 C68.011217,64.7142784 67.3519528,64.4670276 66.7403679,64.1667943 C67.2024623,64.0954304 67.6570283,64.0013597 68.1008396,63.8798968 C72.8666132,62.5802078 76.4239151,58.1617696 76.9548396,52.8840806 C77.2896698,49.5516 76.3518585,46.2133527 74.3812358,43.7249852 C73.6864811,42.8473527 72.8888396,42.1023562 71.980066,41.4784622 C75.0569906,41.4928792 78.1901981,42.874024 80.3146132,45.2812961" id="Fill-8" fill="#FEFEFE"></path>
            <path d="M72.6453887,45.1141314 C74.2582377,47.1516085 75.0243321,49.9012834 74.7468604,52.6599689 C74.3080679,57.0243435 71.4046528,60.66787 67.5204075,61.7267958 C64.2506151,62.6192057 61.1084453,61.8435731 58.9607283,60.4123293 C63.6971057,60.3200608 68.2506528,57.0481314 69.7735208,52.2811633 C70.5381811,49.8875873 70.487634,47.28893 69.630483,44.9616721 C69.2354264,43.8886898 68.6736717,42.8946403 67.9782,42.0123223 C69.9810868,42.6513541 71.4989358,43.6659477 72.6453887,45.1141314" id="Fill-10" fill="#FEFEFE"></path>
            <path d="M65.2345283,45.2497951 C65.4062453,44.3418869 65.4808113,43.4365018 65.4650377,42.5473357 C67.7866226,44.7971025 68.7097358,48.3195265 67.6618679,51.5990247 C66.216434,56.1201837 61.4280755,58.9877173 56.9878113,57.9915053 C55.1150566,57.5708905 52.9279057,56.4067208 51.6011321,54.6658728 C52.4048679,54.8399576 53.2207925,54.9289823 54.035283,54.9289823 C55.5778679,54.9289823 57.1193774,54.6143322 58.5816604,53.9749399 C61.998434,52.4809823 64.485283,49.2191449 65.2345283,45.2497951" id="Fill-12" fill="#FEFEFE"></path>
            <path d="M61.9155151,37.8120127 C61.9208925,37.8192212 61.9244774,37.8213837 61.9248358,37.8174191 C63.1107226,39.8015534 63.5341,42.2992919 63.0547981,44.8337936 C62.4432132,48.0779703 60.4396094,50.7303307 57.6967981,51.9291011 C54.5725528,53.2961894 50.9851377,52.8146629 48.1014396,50.641306 C45.8121189,48.9155958 44.4154396,46.4629102 44.1487226,43.8238855 C44.1501566,43.8253272 44.1483642,43.8188396 44.1429868,43.807306 C44.3720623,44.0084226 44.6057981,44.1972848 44.8477792,44.3710092 C46.5921943,45.6357371 48.7298736,46.3039633 51.0303075,46.3039633 C52.5954774,46.3039633 53.7447981,45.9929173 53.9645528,45.9291223 C58.0215906,44.7764862 60.0112132,42.3270445 60.9655151,40.4751859 C61.4587981,39.516458 61.7481,38.5966558 61.9155151,37.8120127" id="Fill-14" fill="#FEFEFE"></path>
            <path d="M36.9561472,9.30207562 C36.9869774,9.28441484 37.0167321,9.26387067 37.0439774,9.23864099 C37.1221283,9.16727703 37.2135434,9.11609682 37.3132038,9.08329823 C37.3443925,9.0768106 37.3759396,9.07212509 37.4096377,9.06996254 C37.5297321,9.06275406 37.6258075,9.0573477 37.7036,9.05410389 C37.7717132,9.06419576 37.8405434,9.07969399 37.9093736,9.1052841 C38.5474868,9.33919929 39.0189019,10.1559201 39.1694679,11.2898141 C39.5985811,14.5437223 41.1171472,16.7026622 41.1816755,16.7931286 C41.2759585,16.9246834 41.4232981,16.9949661 41.5731472,16.9949661 C41.6702981,16.9949661 41.7685245,16.9654113 41.8534868,16.9044996 C42.0696566,16.748436 42.1191283,16.4464007 41.9639019,16.2287046 C41.9495623,16.2088813 40.5220528,14.1786127 40.1237698,11.162224 C39.9215811,9.64195548 39.2350717,8.56068339 38.2391849,8.19557385 C37.9979208,8.10726996 37.7502038,8.06942544 37.5089396,8.07771519 C37.3777321,7.77531943 37.2601472,7.48157385 37.2239396,7.32551025 C37.1271472,6.90813922 36.942166,6.08637244 37.8581094,5.77136184 C37.9143925,5.75189894 37.9724679,5.73567986 38.0319774,5.72162332 C38.0628075,5.72378587 38.0936377,5.72342544 38.1255434,5.71946078 C38.7901849,5.63656325 39.6623925,5.9418424 40.5381849,9.07428763 C41.3426377,11.9493901 43.1698642,14.7545703 43.2462226,14.8727894 C43.3387132,15.0137152 43.4925057,15.0901251 43.649166,15.0901251 C43.7398642,15.0901251 43.8319962,15.0641746 43.9133736,15.010111 C44.1352792,14.863058 44.1965811,14.5628247 44.050317,14.3397223 C44.0323925,14.3119696 42.2288264,11.5435527 41.4645245,8.81261979 C41.0873925,7.46247138 40.5586189,5.99410389 39.6545057,5.24370106 C39.5254491,4.91175053 39.3827698,4.54159505 39.3426189,4.42337597 C39.1888264,3.95987067 39.0292981,2.93626643 39.9050906,2.6418 C40.0821849,2.58196961 40.2431472,2.55565866 40.3886943,2.55565866 C41.084166,2.55565866 41.4405057,3.15720636 41.6150906,3.60701555 C41.6401849,3.67117102 41.6695811,3.73893074 41.7014868,3.80813216 L45.6624491,13.3171993 C45.6868264,13.3892841 45.7291283,13.4487541 45.7836189,13.4905633 C45.9105245,13.5972488 46.0800906,13.6318495 46.2406943,13.570217 C46.4679774,13.475065 46.5805434,13.216641 46.4887698,12.9856092 L42.6407321,3.7443371 C42.7070528,3.5688106 42.8396943,3.40589894 43.0773736,3.28479647 C43.3179208,3.16189187 43.5290717,3.11503675 43.7104679,3.11503675 C44.2976755,3.11503675 44.5855434,3.60160919 44.5855434,3.60160919 C44.5855434,3.60160919 49.7001283,13.6970862 50.6712792,15.4408177 C50.2798075,16.0989519 49.9629019,16.7423088 49.9216755,16.9019767 C49.8521283,17.1596799 50.0270717,17.3928742 50.1489585,17.149588 C50.434317,16.7242876 50.8476566,16.2200544 51.1989774,15.8145774 C51.2018453,15.8109731 51.2061472,15.8070085 51.2100906,15.8012417 C51.2108075,15.8005208 51.2108075,15.8001604 51.2126,15.7994396 C51.2272981,15.7857435 51.2376943,15.7662806 51.2466566,15.7439343 C51.4872038,15.3132276 52.239317,13.3027823 52.5361472,12.6713194 C52.7480151,11.7511569 53.1412792,10.5105774 53.6463925,9.6992629 C54.083034,8.99967986 54.7007132,8.75819576 55.2248264,8.75819576 C55.8041472,8.75819576 56.2687509,9.05338304 56.2454491,9.35361625 C56.2314679,9.48877527 54.9918075,17.2908742 54.9918075,17.2908742 C54.6670151,18.9232346 54.3752038,21.2558989 54.2192604,22.6089307 C54.2092226,22.9408813 54.1690717,23.2717505 54.1106377,23.5900049 C54.1034679,23.6574042 54.0995245,23.6938071 54.0995245,23.6938071 C54.0995245,23.6938071 54.0837509,23.7669731 54.0504113,23.8855527 C53.7912226,25.0587329 53.3291283,25.9871852 53.3291283,25.9871852 L53.7317132,27.847694 C53.7345811,27.8466127 53.7370906,27.8448106 53.7392415,27.8437293 C53.8998453,28.6283724 54.0747887,29.4667187 54.1436189,29.7215385 C54.4379396,30.7772205 54.0604491,31.393906 54.2508075,31.6051145 C54.517883,31.9006622 55.1710528,30.4960898 55.3395434,29.7647894 C55.4729019,29.1848671 55.2531472,28.0012346 55.0649396,27.178747 C55.6249019,27.4407753 56.4609019,27.919058 57.2445623,28.708747 C58.5863925,30.0588954 58.9599396,31.1077293 59.2141094,31.970224 C59.4679208,32.8330792 59.894166,34.6917859 59.9224868,35.692323 C59.951883,36.6932205 59.6106,42.0119979 53.3531472,43.7849237 C53.3531472,43.7849237 52.3966943,44.0736233 51.0304868,44.0736233 C49.6352415,44.0736233 47.813034,43.7730297 46.1406755,42.5587611 C43.1139396,40.3965774 41.9337887,35.6638495 42.5335434,33.163588 C42.8171094,31.9860827 43.326883,31.0342028 43.728034,30.4157152 C44.0212792,30.5944855 44.3166755,30.7325279 44.6149396,30.8305633 L44.7952604,31.6908954 C44.8156943,31.7928954 45.304317,34.1958424 46.2292226,34.9278636 C46.7719774,35.3549661 47.6653358,35.3881251 47.926317,35.3881251 C48.2019962,35.3881251 48.8566,35.3578495 48.9738264,35.0716728 C48.9931849,35.0248177 49.0243736,34.9029943 48.9024868,34.7797293 C48.8533736,34.72927 48.7745057,34.6852982 48.6131849,34.5969943 C48.1668642,34.3551498 47.3366,33.9057011 47.1602226,33.0871781 C47.0605623,32.6261958 46.6805623,31.0053689 46.4561472,30.0498848 C47.3864302,29.3066905 47.4853736,28.4885279 46.2679396,28.7455102 C45.5344679,28.900853 44.8526189,28.5559272 44.3310151,28.1389166 C41.8896943,25.9911498 39.3293547,19.3950297 38.8217321,18.2268954 C36.7439208,12.9311852 36.3122981,10.0935668 36.9561472,9.30207562" id="Fill-16" fill="#FEFEFE"></path>
            <path d="M135.105881,72.6635025 L132.400353,72.6635025 C133.276862,71.615029 133.991334,70.4346403 134.510428,69.1616226 C134.919108,70.3012834 135.117711,71.4816721 135.105881,72.6635025" id="Fill-18" fill="#FEFEFE"></path>
            <path d="M69.9659943,67.3810558 C70.4252208,67.4300735 70.8848057,67.4563845 71.3433151,67.4563845 C75.8957868,67.4563845 80.3374849,65.0408226 83.1609566,60.8782855 C85.5642774,61.9667661 88.4218057,62.9820806 90.4157302,63.5699322 C95.969466,65.212024 102.32156,66.5401866 108.304409,67.3082502 C112.06856,67.7915788 115.519749,68.0341442 118.543617,68.0341442 C120.792787,68.0341442 122.804994,67.899706 124.533994,67.6304693 C124.648711,67.6146106 125.10256,67.5439675 125.695145,67.3435717 C127.06207,68.7913951 127.330579,70.8869004 127.245975,72.6634304 L70.7009,72.6634304 C70.1552774,71.5850417 69.6795604,69.8805965 69.9659943,67.3810558" id="Fill-20" fill="#FEFEFE"></path>
            <path d="M115.357568,24.3395788 C115.167209,23.6392749 114.785058,23.0121371 114.168096,22.642342 C113.658681,22.3406671 113.012681,22.1936141 112.410417,22.2559675 C112.248738,22.2732678 112.090285,22.3046247 111.937568,22.3522007 C110.441587,22.8294021 109.841832,24.165494 109.400889,26.0054587 C108.913342,28.0198686 109.593398,30.3983067 110.873926,30.8027025 C111.186889,30.9021795 111.714228,30.9861583 111.714228,30.9861583 C112.045474,31.0474304 112.370266,31.0762643 112.686096,31.042024 C113.047096,31.0045399 113.393757,30.8892042 113.721417,30.6466389 C114.333719,30.1950276 114.779323,29.4590417 115.069342,28.7544127 C115.35936,28.0487025 115.505625,27.3184834 115.544342,26.556547 C115.581983,25.8158756 115.552587,25.0521371 115.357568,24.3395788 M114.814813,27.4835576 C114.741681,27.8447025 114.640228,28.1914304 114.502926,28.5222996 C114.203945,29.2489145 113.801002,29.8252325 113.365436,30.1467307 C113.177945,30.2840523 112.970379,30.3683915 112.73736,30.4073173 C113.452549,29.9784127 114.011794,28.9778756 114.120417,27.7679322 C114.269908,26.0959251 113.500228,24.6603562 112.398587,24.5673668 C111.872681,24.5219534 111.369002,24.7904693 110.968568,25.2633456 C111.358964,25.2597413 111.688775,25.6677413 111.713153,26.1939604 C111.735379,26.7324339 111.426002,27.1854869 111.021266,27.2078332 C110.692172,27.2262148 110.402153,26.9548155 110.293172,26.5637555 C110.214662,26.8344339 110.158738,27.1231336 110.131134,27.4251689 C110.029681,28.5424834 110.340492,29.5505894 110.884323,30.1276283 C110.550209,29.9236283 110.250153,29.455077 110.061587,28.8221724 C109.978417,28.5471689 109.922851,28.2577484 109.890587,27.9611194 C109.81387,27.2103562 109.81387,26.433282 110.192436,25.4078756 C110.206417,25.358858 110.221832,25.311282 110.237247,25.2647873 C110.633738,24.231812 111.384058,23.1303562 113.028096,23.3977908 C115.191945,23.7492042 114.965738,26.5933102 114.814813,27.4835576 M111.930398,34.8163845 C110.522606,35.1310346 109.049568,35.1706813 107.598757,35.0492184 C105.237021,34.8520664 102.853417,34.3215223 100.653719,33.39307 C100.456191,33.3087307 100.265832,33.2186247 100.071889,33.1303208 C99.9740208,33.0881512 99.8833226,33.0290417 99.7804358,32.9904763 L99.7804358,32.9875929 C99.4681906,32.8884763 99.1559453,33.0971618 99.1412472,33.4161371 C99.1315679,33.6579816 99.2867943,33.8061159 99.4875491,33.9102784 C100.077625,34.2166389 100.711436,34.4541583 101.33736,34.6747378 C101.884417,34.9183845 102.28736,35.4136071 102.690662,35.8313385 C103.190398,36.3478261 103.728134,36.8289922 104.359794,37.190858 C105.5507,37.876024 107.041662,38.108858 108.376323,37.9016141 C109.078247,37.7924057 109.742172,37.5383067 110.334398,37.1677908 C110.770681,36.8953102 111.159643,36.5651618 111.556851,36.2433032 C111.793813,36.0526389 112.03436,35.8612537 112.301436,35.705911 C112.457738,35.6165258 113.538587,35.1807731 114.111455,34.8506247 C114.111455,35.0528226 114.103926,35.2301512 114.23836,35.2550205 C114.387851,35.2827731 114.520492,35.0030841 114.573191,34.7684481 C114.627323,34.533812 114.579643,34.3067449 114.517625,34.1593314 C114.458115,34.0104763 114.209323,33.7935011 113.973077,33.7639463 C113.736474,33.7361936 113.673379,33.9409145 113.768379,34.0205682 C113.797417,34.0443562 113.829681,34.0775152 113.86087,34.1171618 C113.774832,34.161494 113.690587,34.2173597 113.611719,34.2559251 C113.081153,34.510024 112.508643,34.6855505 111.930398,34.8163845 M110.596813,35.9293739 C110.099228,36.3240382 109.561492,36.6671618 108.938794,36.8632325 C108.323983,37.0556989 107.663643,37.093183 107.011191,37.0380382 C106.374511,36.9825329 105.741058,36.8394445 105.157436,36.5633597 C104.513228,36.2595223 103.979794,35.8071901 103.485794,35.3087237 C105.798775,35.8760311 108.243681,36.1816707 110.596813,35.9293739 M106.662379,25.6143986 C106.702172,23.7070346 106.450511,22.2473173 105.082511,21.3916707 C104.943058,21.3040876 104.793568,21.2316424 104.635832,21.1725329 C104.049342,20.9519534 103.364983,20.9260028 102.780285,21.0871124 C102.065096,21.2810205 101.519474,21.7935435 101.146285,22.4242855 C100.763058,23.0680028 100.533983,23.8039887 100.378398,24.5345682 C100.219587,25.2864127 100.170832,26.0368155 100.276945,26.8005541 C100.381983,27.56213 100.635436,28.3972325 101.126209,28.9969781 C101.390775,29.3173951 101.706964,29.5231972 102.056851,29.6536707 C102.364794,29.7690064 102.697115,29.8284763 103.041983,29.8551477 C103.041983,29.8551477 103.592625,29.9117343 103.931398,29.898759 C105.315889,29.8407307 106.618643,27.7052184 106.662379,25.6143986 M105.264266,28.1827802 C104.845549,28.8470417 104.336851,29.2539604 103.8977,29.2741442 C103.8597,29.2755859 103.815964,29.2759463 103.770436,29.2755859 C104.531511,28.8701088 105.130908,27.8465046 105.240964,26.6008792 C105.389738,24.9285117 104.599625,23.4904198 103.472172,23.3938261 C102.936587,23.346971 102.423228,23.6144057 102.015266,24.0851194 C102.416058,24.082236 102.751964,24.4934799 102.777775,25.0186177 C102.801077,25.5563703 102.487398,26.0090629 102.0737,26.0314092 C101.737436,26.0479887 101.440247,25.7755081 101.328398,25.3833668 C101.248813,25.6547661 101.192172,25.9431053 101.164568,26.2458615 C101.072794,27.2665823 101.3327,28.1964763 101.80304,28.791176 C101.735643,28.734229 101.672549,28.6733173 101.614832,28.6041159 C101.264228,28.1780947 101.010775,27.5087873 100.902153,26.7219816 C100.853398,26.3640806 100.841568,26.0018544 100.864153,25.629176 C100.946606,24.7237908 101.4657,21.8933809 103.719172,22.1197272 C105.432757,22.2916495 105.893775,23.5643067 106.019606,24.6747731 C106.022832,24.72307 106.023908,24.7735293 106.027851,24.8247095 C106.136474,25.9236424 105.933209,26.6780099 105.659681,27.3909286 C105.548908,27.6706177 105.416625,27.9373314 105.264266,28.1827802 M100.118851,32.2674657 C100.069021,32.0768014 99.8256057,32.073918 99.7427943,32.0749993 C99.5312849,32.0713951 99.2487943,32.140236 99.0419453,32.2188085 C98.4837755,32.4174021 98.0245491,33.1101371 98.0528698,33.5311124 C98.0543038,33.5927449 98.0772472,33.6460876 98.1188321,33.6893385 C98.1521717,33.7253809 98.2163415,33.7704339 98.3242472,33.7711548 C98.3242472,33.7711548 98.3307,33.7711548 98.3342849,33.7697131 L98.3346434,33.7704339 L98.3364358,33.7711548 C98.4421906,33.7686318 98.5074358,33.6857343 98.5163981,33.5830134 C98.5264358,33.47813 98.5888132,33.2816989 98.7390208,33.1332042 C98.8892283,32.9839887 99.1398132,32.7432254 99.8589453,32.5893244 C99.985134,32.5597696 100.168323,32.4577696 100.118851,32.2674657" id="Fill-22" fill="#1D1D1B"></path>
            <polygon id="Fill-24" fill="#FFE400" points="10.4803642 72.6633223 8.8255717 77.1826792 188.001308 77.1826792 189.656458 72.6633223"></polygon>
            <path d="M30.5416396,101.285027 L37.157583,83.2083201 L24.8609981,83.2083201 L18.4999415,92.9170622 C18.4999415,92.9170622 18.9039604,87.8372459 19.0068472,86.6143272 C19.0796208,85.6829915 18.9677717,83.2083201 16.7114321,83.2083201 L6.61920566,83.2083201 L3.58490566e-05,101.285027 L7.89220566,101.285027 L12.687734,88.2099244 L11.6760736,101.285027 L18.6906585,101.285027 L27.2922811,88.4395145 L22.5964132,101.285027 L30.5416396,101.285027 Z M44.2693189,101.285027 L50.8834698,83.2083201 L42.1800358,83.2083201 L35.5547717,101.285027 L44.2693189,101.285027 Z M71.8196774,89.8303908 L74.4535075,83.4804403 C69.9203943,82.3559173 65.3675642,82.891147 63.0047528,83.3755569 C57.7295642,84.4611541 50.5809038,88.3587795 50.6565453,95.4674226 C50.7024321,99.5694085 55.6273755,101.845126 61.2811302,101.6869 C64.4494698,101.601479 67.4665264,101.015069 67.8486774,100.949112 L69.9465642,95.4757124 C67.1725642,95.9168714 64.5071868,96.5872601 62.4146774,95.7445887 C58.6473,94.2300869 60.9674509,90.2902919 63.6299604,89.0634085 C64.8054509,88.522412 66.3982245,88.0109703 68.3226019,88.0520587 C69.117017,88.0682777 71.0643377,88.1017972 71.8196774,89.8303908 Z M93.2441491,101.287189 L99.8726396,83.2083201 L91.5922245,83.2083201 L89.1906962,89.7190198 L84.8103,89.7190198 L87.1949792,83.2083201 L78.8866019,83.2083201 L72.2853566,101.287189 L80.5625453,101.287189 L82.8221113,95.1653873 L87.2107528,95.1653873 L84.9540547,101.287189 L93.2441491,101.287189 Z M121.197809,87.9446523 L122.944734,83.2083201 L104.787545,83.2083201 L98.1708849,101.287189 L116.531696,101.287189 L118.314111,96.4092106 L108.175998,96.4092106 L108.918074,94.4002071 L118.379357,94.4002071 L120.002243,89.9511329 L110.542394,89.9511329 L111.264394,87.9446523 L121.197809,87.9446523 Z M140.350885,95.2814438 L131.819885,95.2814438 L136.235055,83.2083201 L127.765357,83.2083201 L121.1383,101.287189 L138.151545,101.287189 L140.350885,95.2814438 Z M150.187508,101.285027 L156.802375,83.2083201 L148.089979,83.2083201 L141.475111,101.285027 L150.187508,101.285027 Z M178.51113,83.2083201 L173.970489,95.6159173 C174.032149,94.3652459 174.278432,89.431041 174.431866,86.5898184 C174.494243,85.4188007 174.241866,84.5253095 173.686206,83.932412 C173.007225,83.2162495 172.114225,83.2083201 172.102036,83.2083201 L161.984357,83.2083201 L155.371998,101.287189 L162.718187,101.287189 L167.41047,88.4838466 L166.854092,101.287189 L179.173979,101.287189 L185.794583,83.2083201 L178.51113,83.2083201 Z" id="Fill-26" fill="#004F9E"></path>
        </g>
    </g>
</svg>
