<?xml version="1.0" encoding="utf-8"?>
<!DOCTYPE svg PUBLIC "-//W3C//DTD SVG 1.1//EN" "http://www.w3.org/Graphics/SVG/1.1/DTD/svg11.dtd">
<svg version="1.1" id="VARG" xmlns="http://www.w3.org/2000/svg" xmlns:xlink="http://www.w3.org/1999/xlink" x="0px" y="0px"
 width="300px" height="143.42px" viewBox="0 0 300 143.42" enable-background="new 0 0 300 143.42" xml:space="preserve">
<rect x="2.514" fill="#FFFFFF" width="295.71" height="143.42"/>
<g>
<path fill="#0098BE" d="M299.183,66.692c-0.643-2.154-2.597-5.076-6.227-5.798c-5.743-1.143-11.757,0.385-21.258,15.542
c-4.487,7.158-10.669,10.501-12.987,8.282c-2.83-2.707-2.755-10.187,1.901-17.167c3.216-4.82,6.479-4.147,7.512-1.754
c0,0-4.069,0.203-3.936,3.687c0.191,4.974,7.265,3.873,8.176,0.353c0.835-3.228-0.38-8.519-6.489-9.196
c-11.185-1.24-18.443,13.852-23.434,16.515c1.185-3.864,1.314-7.736,0.225-10.491c-2.676-6.76-9.484-6.586-15.289-3.343
l0.533-1.882l-12.791,0.006l-0.703,3.008h3.504c-1.692,5.25-5.225,9.841-7.886,12.178c1.399-11.694-2.921-15.823-7.243-16.277
c-6.256-0.657-12.011,2.79-20.99,17.656c-4.909,8.128-11.49,9.177-13.146,4.934c-4.188-10.727,2.422-25.007,9.718-31.007
c5.269-4.333,8.198,4.931,7.311,9.713l3.874,0.01l3.403-14.457l-3.703-0.007l-1.11,2.278c-4.144-3.436-9.896-3.983-14.579-2.04
c-9.065,3.763-16.237,14.96-17.006,25.482c-0.498,6.833,1.774,13.761,7.456,16.435c7.104,3.344,15.43-0.357,19.563-6.677
c0.405,2.083,2.102,7.569,8.403,8.113c10.894,0.94,20.11-10.806,22.868-13.719l-5.866,23.655l9.387-0.007l3.059-12.665
c7.987,7.872,19.68-4.243,26.623-10.983c-2.169,5.601,1.444,13.521,7.702,13.777c7.094,0.289,12.502-3.977,16.825-9.573
c0.612,5.008,3.55,8.911,8.079,9.452C294.142,92.334,302.776,78.736,299.183,66.692L299.183,66.692z"/>
<path fill="#0098BE" d="M24.748,71.405c-1.071,4.717-1.974,8.354-4.759,11.929c-6.378,8.188-15.313,8.049-19.967,7.238L0,86.071
c2.512,2.932,8.347,2.137,10.868-2.462c2.642-4.816,2.771-11.771,5.814-19.183c3.512-8.555,7.904-13.462,15.497-16.143
c5.987-2.113,13.93-1.767,24.235-1.75l-0.933,3.235l-5.807-0.004c-2.931,11.231-6.706,24.459-8.83,32.092
c-0.979,3.517,2.257,4.022,3.91,3.456c5.718-1.956,9.436-11.817,10.987-20.372l-5.34,0.036l1.099-3.855
c6.077-0.17,7.872,0.098,13.228-8.959l3.625-0.007l-2.127,8.963l6.454-0.003l-0.952,3.693l-6.385-0.002c0,0-2.45,9.655-3.71,15.25
c-1.596,7.089,4.363,5.31,9.041,0.422c2.95-3.082,4.319-8.774,5.216-12.604l3.534-15.849h-5.51l0.737-3.593l15.716-0.02
c0,0-5.322,21.844-8.139,32.916c-1.123,4.412,2.731,4.149,5.849-1.01c3.917-6.483,6.417-12.956,12.41-17.617
c3.979-3.095,10.052-2.54,12.992,0.534l0.628-1.946l8.829,0.042c0,0-3.287,14.509-4.8,20.806c-0.589,2.814,2.644,3.626,5.606,0.088
c-0.852-2.793,2.051-5.982,5.258-5.002c2.718,0.831,3.087,3.393,1.925,5.439c-0.274,0.81-1.377,1.237-2.015,1.227
c-0.151,2.025,2.038,3.085,2.919,3.169c2.711,0.258,5.554-0.33,6.368-3.392c0.986-3.708-5.146-5.11-8.358-9.391
c-1.842-2.455-1.781-6.844,0.23-9.275c3.513-4.246,8.537-5.687,13.819-4.429c2.871,0.684,5.391,2.559,5.856,5.835
c0.406,2.861-1.062,4.26-3.104,4.755c-1.938,0.47-6.146-1.52-3.213-6.058c0,0-0.824-2.343-4.411-0.458
c-1.17,0.615-2.691,2.827-0.742,5.09c3.071,3.565,7.709,4.357,9.241,8.33c1.702,4.414-0.703,8.401-4.649,10.745
c-5.767,3.426-14.261,3.035-17.986-3.256c-1.816,2.463-5.408,4.652-9.259,5.051c-3.77,0.215-5.959-2.237-6.56-4.128
c-3.692,4.08-7.5,4.396-9.119,4.427c-4.756-0.006-8.25-3.795-8.701-7.891c-3.629,4.156-7.574,7.784-13.511,7.799
c-3.284,0.008-5.649-2.62-5.849-6.047c-4.531,4.04-8.385,6.122-14.339,6.137c-2.806,0.006-5.259-1.834-5.712-5.568
c-3.43,4.125-9.136,5.801-13.438,5.59c-6.408-0.313-8.262-4.683-7.109-9.067c0.232-0.885,1.423-5.229,2.88-10.452H24.748
L24.748,71.405z"/>
<polygon fill="#0098BE" points="2.514,0 298.224,0 298.224,31.789 2.514,31.789 2.514,0 "/>
<polygon fill="#0098BE" points="2.514,111.631 298.224,111.631 298.224,143.42 2.514,143.42 2.514,111.631 "/>
<path fill="#FFFFFF" d="M107.095,83.36c2.142-2.462,4.145-9.184,4.06-15.139c-0.042-2.979-3.676-5.093-6.542-0.886
c-2.108,3.096-5.781,11.741-2.408,16.575C102.586,84.199,104.749,86.057,107.095,83.36L107.095,83.36z"/>
<path fill="#FFFFFF" d="M35.12,67.884c2.155-7.801,4.501-16.234,4.996-17.858l-1.937-0.013c-1.887-0.068-3.215,1.147-4.203,1.962
c-2.962,2.444-6.267,7.24-8.165,14.871l-0.253,1.038H35.12L35.12,67.884z"/>
<path fill="#FFFFFF" d="M286.079,67.496c2.784-4.614,6.825-3.789,6.994,0.71c0.072,1.894-0.505,10.341-3.867,15.663
c-1.909,3.021-6.195,4.101-7.32,1.056C280.515,81.218,283.287,72.122,286.079,67.496L286.079,67.496z"/>
<path fill="#FFFFFF" d="M222.911,81.769c0.178-0.715,1.123-4.198,2.689-10.364c1.8-7.08,7.727-7.227,8.369-3.562
c0.488,1.99-0.385,9.769-3.325,15.192C228.26,87.896,221.348,87.779,222.911,81.769L222.911,81.769z"/>
<path fill="#FFFFFF" d="M193.032,86.008c-2.742-5.234,1.956-16.174,3.558-18.393c2.456-3.868,5.964-4.036,7.128-0.567
c0.788,5.12-1.291,13.085-3.679,16.512C196.52,88.451,193.371,86.655,193.032,86.008L193.032,86.008z"/>
</g>
</svg>
