<?xml version="1.0" encoding="UTF-8" standalone="no"?>
<!-- Created with Inkscape (http://www.inkscape.org/) -->

<svg
   xmlns:dc="http://purl.org/dc/elements/1.1/"
   xmlns:cc="http://creativecommons.org/ns#"
   xmlns:rdf="http://www.w3.org/1999/02/22-rdf-syntax-ns#"
   xmlns:svg="http://www.w3.org/2000/svg"
   xmlns="http://www.w3.org/2000/svg"
   xmlns:sodipodi="http://sodipodi.sourceforge.net/DTD/sodipodi-0.dtd"
   xmlns:inkscape="http://www.inkscape.org/namespaces/inkscape"
   width="140"
   height="68"
   id="svg3279"
   version="1.1"
   inkscape:version="0.48.4 r9939"
   sodipodi:docname="New document 6">
  <defs
     id="defs3281">
    <clipPath
       clipPathUnits="userSpaceOnUse"
       id="clipPath3055">
      <path
         inkscape:connector-curvature="0"
         d="m 53.978,31.337 109.801,0 0,53.257 -109.801,0 0,-53.257 z"
         id="path3057" />
    </clipPath>
  </defs>
  <sodipodi:namedview
     id="base"
     pagecolor="#ffffff"
     bordercolor="#666666"
     borderopacity="1.0"
     inkscape:pageopacity="0.0"
     inkscape:pageshadow="2"
     inkscape:zoom="5.6"
     inkscape:cx="82.12286"
     inkscape:cy="-55.047684"
     inkscape:document-units="px"
     inkscape:current-layer="layer1"
     showgrid="false"
     inkscape:window-width="1536"
     inkscape:window-height="878"
     inkscape:window-x="-8"
     inkscape:window-y="-8"
     inkscape:window-maximized="1" />
  <metadata
     id="metadata3284">
    <rdf:RDF>
      <cc:Work
         rdf:about="">
        <dc:format>image/svg+xml</dc:format>
        <dc:type
           rdf:resource="http://purl.org/dc/dcmitype/StillImage" />
        <dc:title></dc:title>
      </cc:Work>
    </rdf:RDF>
  </metadata>
  <g
     inkscape:label="Layer 1"
     inkscape:groupmode="layer"
     id="layer1"
     transform="translate(0,-984.36218)">
    <g
       clip-path="url(#clipPath3055)"
       id="g3053"
       transform="matrix(1.25,0,0,-1.25,-66.224001,1091.0032)"
       style="fill:#007cba;fill-opacity:1;stroke:none">
      <g
         transform="translate(70.2457,31.5675)"
         id="g3059"
         style="fill:#007cba;fill-opacity:1;stroke:none">
        <path
           inkscape:connector-curvature="0"
           id="path3061"
           style="fill:#007cba;fill-opacity:1;stroke:none"
           d="m 0,0 -1.607,0 c -0.152,0 -0.274,0.122 -0.274,0.274 l 0,10.794 c 0,0.152 0.122,0.274 0.274,0.274 l 1.607,0 c 0.152,0 0.275,-0.122 0.275,-0.274 l 0,-10.794 C 0.275,0.122 0.152,0 0,0" />
      </g>
      <g
         transform="translate(77.0716,31.3547)"
         id="g3063"
         style="fill:#007cba;fill-opacity:1;stroke:none">
        <path
           inkscape:connector-curvature="0"
           id="path3065"
           style="fill:#007cba;fill-opacity:1;stroke:none"
           d="M 0,0 C -1.638,0 -3.45,0.633 -4.729,1.648 -4.845,1.74 -4.868,1.907 -4.781,2.026 l 0.83,1.149 c 0.045,0.059 0.108,0.1 0.181,0.112 0.074,0.011 0.147,-0.007 0.208,-0.051 1.176,-0.866 2.438,-1.325 3.648,-1.325 1.197,0 2.001,0.577 2.001,1.436 l 0,0.041 c 0,0.868 -1.101,1.24 -2.542,1.633 -1.624,0.453 -3.846,1.071 -3.846,3.317 l 0,0.041 c 0,1.982 1.655,3.366 4.024,3.366 1.381,0 2.919,-0.461 4.112,-1.235 C 3.962,10.429 4,10.263 3.92,10.134 L 3.175,8.924 C 3.136,8.86 3.074,8.815 3.002,8.798 2.93,8.782 2.854,8.794 2.79,8.834 1.788,9.471 0.653,9.836 -0.319,9.836 c -1.108,0 -1.855,-0.519 -1.855,-1.29 l 0,-0.042 c 0,-0.807 1.261,-1.184 2.595,-1.581 L 0.463,6.911 C 1.948,6.474 4.195,5.813 4.195,3.556 l 0,-0.042 C 4.195,1.413 2.51,0 0,0" />
      </g>
      <g
         transform="translate(125.4564,35.8091)"
         id="g3067"
         style="fill:#007cba;fill-opacity:1;stroke:none">
        <path
           inkscape:connector-curvature="0"
           id="path3069"
           style="fill:#007cba;fill-opacity:1;stroke:none"
           d="m 0,0 c 0,-1.511 -1.435,-2.651 -3.339,-2.651 -1.175,0 -2.44,0.595 -2.44,1.897 0,1.26 1.049,1.983 2.879,1.983 0.973,0 1.925,-0.128 2.9,-0.393 L 0,0 z M -2.796,7.247 C -4.571,7.247 -5.834,6.78 -6.834,6.324 -6.964,6.265 -7.026,6.115 -6.978,5.98 l 0.48,-1.314 c 0.025,-0.071 0.081,-0.13 0.151,-0.158 0.071,-0.03 0.15,-0.029 0.22,0.002 0.871,0.4 1.857,0.769 3.164,0.769 1.342,0 2.941,-0.464 2.941,-2.671 l 0,-0.017 c -0.767,0.197 -1.727,0.376 -3.045,0.376 -3.014,0 -4.889,-1.45 -4.889,-3.783 0,-2.399 2.166,-3.656 4.304,-3.656 1.725,0 2.884,0.681 3.63,1.412 l 0,-0.908 c 0,-0.151 0.124,-0.274 0.273,-0.274 l 1.546,0 c 0.151,0 0.275,0.123 0.275,0.274 l 0,6.598 c 0,2.976 -1.73,4.617 -4.868,4.617" />
      </g>
      <g
         transform="translate(133.9622,31.3372)"
         id="g3071"
         style="fill:#007cba;fill-opacity:1;stroke:none">
        <path
           inkscape:connector-curvature="0"
           id="path3073"
           style="fill:#007cba;fill-opacity:1;stroke:none"
           d="m 0,0 c -2.677,0 -4.407,1.804 -4.407,4.597 l 0,6.702 c 0,0.151 0.123,0.274 0.273,0.274 l 1.608,0 c 0.151,0 0.274,-0.123 0.274,-0.274 l 0,-6.305 c 0,-1.896 0.989,-2.985 2.711,-2.985 1.691,0 2.782,1.22 2.782,3.11 l 0,6.18 c 0,0.151 0.124,0.274 0.275,0.274 l 1.586,0 c 0.151,0 0.274,-0.123 0.274,-0.274 l 0,-10.795 C 5.376,0.353 5.253,0.23 5.102,0.23 l -1.586,0 c -0.151,0 -0.275,0.123 -0.275,0.274 l 0,1.014 C 2.57,0.69 1.616,0 0,0" />
      </g>
      <g
         transform="translate(147.1879,31.3422)"
         id="g3075"
         style="fill:#007cba;fill-opacity:1;stroke:none">
        <path
           inkscape:connector-curvature="0"
           id="path3077"
           style="fill:#007cba;fill-opacity:1;stroke:none"
           d="m 0,0 c -3.608,0 -6.032,2.397 -6.032,5.962 0,3.334 2.503,5.754 5.953,5.754 1.794,0 3.064,-0.453 4.382,-1.565 L 4.446,10.033 C 4.501,9.986 4.535,9.917 4.542,9.846 4.547,9.774 4.523,9.702 4.477,9.646 L 3.438,8.422 C 3.391,8.366 3.324,8.333 3.249,8.327 3.178,8.322 3.106,8.345 3.051,8.393 L 2.908,8.517 c -0.68,0.592 -1.519,1.139 -3.033,1.139 -2.183,0 -3.706,-1.506 -3.706,-3.662 0,-2.408 1.522,-3.965 3.876,-3.965 0.955,0 1.956,0.32 2.706,0.863 l 0,1.892 -3.061,0 c -0.15,0 -0.275,0.123 -0.275,0.274 l 0,1.48 c 0,0.152 0.125,0.274 0.275,0.274 l 4.895,0 c 0.149,0 0.272,-0.122 0.272,-0.274 l 0,-4.487 C 4.857,1.973 4.824,1.899 4.767,1.848 L 4.705,1.792 C 3.954,1.123 2.346,0 0,0" />
      </g>
      <g
         transform="translate(161.7092,35.8091)"
         id="g3079"
         style="fill:#007cba;fill-opacity:1;stroke:none">
        <path
           inkscape:connector-curvature="0"
           id="path3081"
           style="fill:#007cba;fill-opacity:1;stroke:none"
           d="m 0,0 c 0,-1.511 -1.436,-2.651 -3.339,-2.651 -1.177,0 -2.441,0.595 -2.441,1.897 0,1.26 1.049,1.983 2.879,1.983 0.974,0 1.925,-0.128 2.901,-0.393 L 0,0 z M -2.797,7.247 C -4.575,7.247 -5.836,6.78 -6.835,6.324 -6.965,6.265 -7.027,6.115 -6.978,5.98 l 0.479,-1.314 c 0.027,-0.071 0.081,-0.13 0.152,-0.158 0.071,-0.03 0.15,-0.029 0.221,0.002 0.87,0.4 1.856,0.769 3.161,0.769 1.343,0 2.942,-0.464 2.942,-2.671 l 0,-0.017 c -0.764,0.197 -1.727,0.376 -3.046,0.376 -3.014,0 -4.888,-1.45 -4.888,-3.783 0,-2.524 2.162,-3.656 4.305,-3.656 1.724,0 2.882,0.681 3.629,1.412 l 0,-0.908 c 0,-0.151 0.123,-0.274 0.274,-0.274 l 1.547,0 c 0.151,0 0.272,0.123 0.272,0.274 l 0,6.598 c 0,2.976 -1.728,4.617 -4.867,4.617" />
      </g>
      <g
         transform="translate(65.4724,31.5765)"
         id="g3083"
         style="fill:#007cba;fill-opacity:1;stroke:none">
        <path
           inkscape:connector-curvature="0"
           id="path3085"
           style="fill:#007cba;fill-opacity:1;stroke:none"
           d="m 0,0 -1.605,0 c -0.152,0 -0.274,0.122 -0.274,0.271 l 0,7.447 -3.398,-4.789 C -5.328,2.855 -5.412,2.812 -5.502,2.812 l -0.247,0 c -0.09,0 -0.173,0.043 -0.225,0.115 l -3.397,4.779 0,-7.435 C -9.371,0.122 -9.494,0 -9.645,0 l -1.575,0 c -0.152,0 -0.274,0.122 -0.274,0.271 l 0,10.784 c 0,0.152 0.122,0.274 0.274,0.274 l 1.786,0 c 0.089,0 0.175,-0.044 0.225,-0.118 l 3.599,-5.172 3.599,5.172 c 0.052,0.074 0.136,0.118 0.224,0.118 l 1.787,0 c 0.153,0 0.274,-0.122 0.274,-0.274 l 0,-10.784 C 0.274,0.122 0.153,0 0,0" />
      </g>
      <g
         transform="translate(87.043,31.3547)"
         id="g3087"
         style="fill:#007cba;fill-opacity:1;stroke:none">
        <path
           inkscape:connector-curvature="0"
           id="path3089"
           style="fill:#007cba;fill-opacity:1;stroke:none"
           d="m 0,0 c -1.412,0 -2.932,0.458 -4.172,1.253 -0.065,0.04 -0.108,0.106 -0.123,0.18 -0.013,0.075 0.004,0.152 0.047,0.213 l 0.833,1.167 c 0.087,0.117 0.248,0.149 0.372,0.073 1.025,-0.637 2.108,-0.975 3.13,-0.975 1.196,0 2,0.577 2,1.436 l 0,0.041 c 0,0.868 -1.102,1.24 -2.543,1.633 -1.624,0.453 -3.845,1.071 -3.845,3.317 l 0,0.041 c 0,1.982 1.655,3.366 4.024,3.366 1.38,0 2.919,-0.461 4.11,-1.235 C 3.96,10.429 3.999,10.263 3.92,10.134 L 3.173,8.924 C 3.135,8.86 3.073,8.815 3.001,8.798 2.929,8.782 2.853,8.794 2.79,8.834 1.787,9.471 0.654,9.836 -0.32,9.836 c -1.107,0 -1.853,-0.519 -1.853,-1.29 l 0,-0.042 c 0,-0.807 1.26,-1.184 2.595,-1.58 L 0.463,6.911 C 1.949,6.474 4.195,5.813 4.195,3.556 l 0,-0.042 C 4.195,1.413 2.508,0 0,0" />
      </g>
      <g
         transform="translate(95.0853,31.5675)"
         id="g3091"
         style="fill:#007cba;fill-opacity:1;stroke:none">
        <path
           inkscape:connector-curvature="0"
           id="path3093"
           style="fill:#007cba;fill-opacity:1;stroke:none"
           d="m 0,0 -1.608,0 c -0.151,0 -0.274,0.122 -0.274,0.274 l 0,10.794 c 0,0.152 0.123,0.274 0.274,0.274 l 1.608,0 c 0.152,0 0.274,-0.122 0.274,-0.274 l 0,-10.794 C 0.274,0.122 0.152,0 0,0" />
      </g>
      <g
         transform="translate(101.9099,31.3547)"
         id="g3095"
         style="fill:#007cba;fill-opacity:1;stroke:none">
        <path
           inkscape:connector-curvature="0"
           id="path3097"
           style="fill:#007cba;fill-opacity:1;stroke:none"
           d="m 0,0 c -1.636,0 -3.45,0.633 -4.729,1.648 -0.115,0.092 -0.14,0.259 -0.053,0.378 l 0.832,1.149 c 0.043,0.059 0.109,0.1 0.181,0.112 0.073,0.011 0.147,-0.007 0.207,-0.051 1.178,-0.866 2.438,-1.325 3.648,-1.325 1.197,0 2.003,0.577 2.003,1.436 l 0,0.041 c 0,0.868 -1.103,1.24 -2.544,1.633 -1.623,0.453 -3.847,1.071 -3.847,3.317 l 0,0.041 c 0,1.982 1.656,3.366 4.026,3.366 1.38,0 2.919,-0.461 4.111,-1.235 0.126,-0.081 0.164,-0.247 0.086,-0.376 L 3.176,8.924 C 3.136,8.86 3.074,8.815 3.002,8.798 2.929,8.782 2.854,8.794 2.792,8.834 1.786,9.471 0.654,9.836 -0.319,9.836 c -1.108,0 -1.852,-0.519 -1.852,-1.29 l 0,-0.042 c 0,-0.807 1.26,-1.184 2.592,-1.581 L 0.464,6.911 C 1.95,6.474 4.196,5.813 4.196,3.556 l 0,-0.042 C 4.196,1.413 2.509,0 0,0" />
      </g>
      <g
         transform="translate(111.8367,31.3547)"
         id="g3099"
         style="fill:#007cba;fill-opacity:1;stroke:none">
        <path
           inkscape:connector-curvature="0"
           id="path3101"
           style="fill:#007cba;fill-opacity:1;stroke:none"
           d="m 0,0 c -1.411,0 -2.932,0.458 -4.172,1.253 -0.063,0.04 -0.108,0.106 -0.123,0.18 -0.013,0.075 0.004,0.152 0.048,0.213 l 0.833,1.167 c 0.086,0.117 0.247,0.149 0.369,0.073 1.026,-0.637 2.109,-0.975 3.131,-0.975 1.197,0 2.001,0.577 2.001,1.436 l 0,0.041 c 0,0.868 -1.102,1.24 -2.543,1.633 -1.623,0.453 -3.846,1.071 -3.846,3.317 l 0,0.041 c 0,1.982 1.656,3.366 4.025,3.366 1.381,0 2.919,-0.461 4.111,-1.235 0.126,-0.081 0.164,-0.247 0.084,-0.376 L 3.173,8.924 C 3.136,8.86 3.073,8.815 3,8.798 2.929,8.782 2.852,8.794 2.791,8.834 1.787,9.471 0.652,9.836 -0.32,9.836 c -1.108,0 -1.852,-0.519 -1.852,-1.29 l 0,-0.042 c 0,-0.807 1.259,-1.184 2.593,-1.58 L 0.462,6.911 C 1.948,6.474 4.195,5.813 4.195,3.556 l 0,-0.042 C 4.195,1.413 2.51,0 0,0" />
      </g>
      <g
         transform="translate(132.024,79.2767)"
         id="g3103"
         style="fill:#007cba;fill-opacity:1;stroke:none">
        <path
           inkscape:connector-curvature="0"
           id="path3105"
           style="fill:#007cba;fill-opacity:1;stroke:none"
           d="M 0,0 0,-25.543 -13.131,-16.789 0,0 z m -2.014,1.187 -13.052,-16.685 -5.987,3.99 19.039,12.695 z m -14.485,-18.518 -6.646,-8.497 -6.644,8.495 6.647,4.433 6.643,-4.431 z m -8.734,5.823 -5.989,-3.993 -13.054,16.689 19.043,-12.696 z m -7.924,-5.283 -13.122,-8.752 -0.01,25.542 13.132,-16.79 z M 0.541,5.317 c -0.333,0 -0.66,-0.093 -0.946,-0.271 l -22.737,-15.16 -22.756,15.17 c -0.278,0.171 -0.601,0.261 -0.933,0.261 -0.976,0 -1.774,-0.782 -1.776,-1.744 l 0,-30.169 c 0,-0.964 0.797,-1.749 1.776,-1.749 0.302,0 0.594,0.076 0.872,0.231 l 14.236,9.492 7.015,-8.966 0.011,-0.01 c 0.374,-0.479 0.94,-0.752 1.552,-0.752 0.614,0 1.183,0.277 1.552,0.751 l 7.029,8.979 14.298,-9.529 c 0.254,-0.13 0.526,-0.196 0.807,-0.196 0.976,0 1.774,0.783 1.777,1.743 l 0,30.176 C 2.315,4.536 1.517,5.317 0.541,5.317" />
      </g>
    </g>
  </g>
</svg>
