<svg xmlns="http://www.w3.org/2000/svg" viewBox="0 0 125.46 61.37"><defs><style>.cls-1{fill:#fff;}.cls-2{fill:#00adef;}</style></defs><title>Calque 1</title><g id="Layer_2" data-name="Layer 2"><g id="Calque_1" data-name="Calque 1"><path class="cls-1" d="M5.05,61.18V48.26H6.58V61.18Z"/><path class="cls-1" d="M10.58,61.18V52H12.1v1.38a4.92,4.92,0,0,1,3.46-1.57,2.48,2.48,0,0,1,2.72,2.76v6.65h-1.5V54.86c0-1.22-.53-1.8-1.7-1.8a4.4,4.4,0,0,0-3,1.48v6.64Z"/><path class="cls-1" d="M21.09,59.78l.91-.91a3.79,3.79,0,0,0,2.88,1.28c1.43,0,2.22-.51,2.22-1.45s-.81-1.28-2.38-1.64c-1.95-.47-3.3-1-3.3-2.78,0-1.39,1.22-2.51,3.23-2.51a4.77,4.77,0,0,1,3.53,1.33l-.79,1A4,4,0,0,0,24.72,53c-1.34,0-1.87.59-1.87,1.24,0,.86.74,1.17,2.19,1.5,2.07.51,3.51,1,3.51,2.92s-1.59,2.7-3.69,2.7A4.86,4.86,0,0,1,21.09,59.78Z"/><path class="cls-1" d="M31.51,58.61V52H33V58.3c0,1.22.52,1.8,1.69,1.8a4.33,4.33,0,0,0,3-1.49V52h1.52v9.22H37.69V59.8a5,5,0,0,1-3.45,1.55A2.47,2.47,0,0,1,31.51,58.61Z"/><path class="cls-1" d="M42.78,61.18V52h1.5v1.71h0a4,4,0,0,1,3.56-1.9h.2L48,53.16h-.44a3.53,3.53,0,0,0-3.24,2.08v6Z"/><path class="cls-1" d="M49.78,59c0-1.87,1.59-3.2,6.16-3.85v-.41A1.54,1.54,0,0,0,54.19,53a5,5,0,0,0-3.33,1.4l-.78-.94a6.1,6.1,0,0,1,4.27-1.71c2.2,0,3.07,1.15,3.07,3.07v4.07a6.15,6.15,0,0,0,.27,2.27H56.15a4,4,0,0,1-.21-1.28,5,5,0,0,1-3.56,1.42C50.79,61.32,49.78,60.48,49.78,59Zm6.16-.21V56.2c-3.51.56-4.68,1.42-4.68,2.57,0,.89.6,1.36,1.56,1.36A4.42,4.42,0,0,0,55.94,58.79Z"/><path class="cls-1" d="M60.9,61.18V52h1.52v1.38a4.92,4.92,0,0,1,3.45-1.57,2.48,2.48,0,0,1,2.73,2.76v6.65H67.1V54.86c0-1.22-.53-1.8-1.7-1.8a4.4,4.4,0,0,0-3,1.48v6.64Z"/><path class="cls-1" d="M71.55,56.57c0-3.37,2.17-4.8,4.23-4.8a3.66,3.66,0,0,1,3.61,2.58l-1.28.53A2.4,2.4,0,0,0,75.74,53c-1.33,0-2.67.93-2.67,3.53,0,2.27,1.08,3.54,2.64,3.54a2.49,2.49,0,0,0,2.47-1.85l1.24.49a3.89,3.89,0,0,1-3.77,2.62C73.52,61.37,71.55,59.73,71.55,56.57Z"/><path class="cls-1" d="M81.66,56.57c0-3.35,2.23-4.8,4.17-4.8,2.18,0,3.84,1.53,3.84,4.87V57H83.16c0,2.08,1.26,3.2,2.78,3.2a3.12,3.12,0,0,0,2.77-1.5l.87.76a4.26,4.26,0,0,1-3.75,2C83.65,61.37,81.66,59.78,81.66,56.57Zm6.58-.79c-.12-1.64-.91-2.76-2.42-2.76-1.24,0-2.41.86-2.62,2.76Z"/><path class="cls-1" d="M26.56,26.65c2.18-.4,4.25-.84,6.19-1.32l.19.13v2.19a11.42,11.42,0,0,1,6.34-2.32,6,6,0,0,1,4.34,1.5,5.61,5.61,0,0,1,1.58,4.26v6.68c0,1.57,0,2.74,0,3.49a.75.75,0,0,0,.5.73l2.19.64,0,.62c-1.72,0-3.23,0-4.51,0h-1.9c0-.18,0-2.39,0-3V32a4.28,4.28,0,0,0-1.15-3.34,5,5,0,0,0-3.39-1A8.8,8.8,0,0,0,33,28.75V37c0,1.57,0,4.93,0,6.24H29.31c0-.81,0-3.49,0-4.23V32.57c0-1.65,0-3.18-.08-4.59l-2.6-.69Z"/><path class="cls-1" d="M54.75,18.89a2.14,2.14,0,0,1-.66,1.62,2.3,2.3,0,0,1-1.68.64,2.26,2.26,0,0,1-1.62-.59A2,2,0,0,1,50.16,19a2.06,2.06,0,0,1,.66-1.61,2.43,2.43,0,0,1,1.72-.59,2.37,2.37,0,0,1,1.59.53A1.94,1.94,0,0,1,54.75,18.89Zm-.22,12c0-2,0-3.75.12-5.38l-.17-.13c-1.9.46-4,.92-6.26,1.34l.05.47,2.51.72c0,1.43.08,3,.08,4.68v6.29c0,1.2,0,4.4,0,4.4h6.4l0-.62L55,42a.67.67,0,0,1-.47-.66c0-.59,0-1.67,0-3.22Z"/><path class="cls-1" d="M20.09,41.69a10.88,10.88,0,0,1-7,2.1c-3.49,0-6.08-.88-7.75-2.65s-2.5-4.49-2.5-8.2V22.51c0-.63,0-1.2,0-1.72s0-1,0-1.38a.63.63,0,0,0-.45-.63L0,18.05l0-.8c1.61.05,3.15.07,4.63.07s1.91-.13,1.91-.07c0,.43,0,3,0,3.5s0,1.08,0,1.69v9.92q0,5.34,1.7,7.4c1.13,1.38,3,2.07,5.47,2.07s4.4-.71,5.55-2.13c0,0,.55-.48.55-.76,0-.53,0-11.12,0-11.12l0-5.29c0-.63,0-1.2,0-1.71s0-1,0-1.39a.63.63,0,0,0-.45-.63l-2.32-.73,0-.8c1.6.05,3.15.07,4.63.07s1.9-.13,1.9-.07c0,.43,0,3,0,3.5l0,5.91c0,4.52,0,11.81,0,12.81a6.25,6.25,0,0,0,.13,1.23,1.24,1.24,0,0,0,.4.72,1.8,1.8,0,0,0,.87.36,10.06,10.06,0,0,0,1.55.12l.11.73c-.65.22-1.39.44-2.24.64a7.06,7.06,0,0,1-1.43.31A2.7,2.7,0,0,1,20.09,41.69Z"/><path class="cls-1" d="M92.07,42.16A6.72,6.72,0,0,1,90.69,42a1.37,1.37,0,0,1-.77-.45,1.79,1.79,0,0,1-.32-.93,15,15,0,0,1,0-1.61l.09-7.84A5.43,5.43,0,0,0,88,26.87a6.39,6.39,0,0,0-4.48-1.5,15.61,15.61,0,0,0-6.23,1.57l.24,1a23.35,23.35,0,0,1,4.28-.5,4.22,4.22,0,0,1,3.13,1,4.31,4.31,0,0,1,1,3.19l0,.81q-5.33,0-7.82,1.45a4.89,4.89,0,0,0-2.5,4.53,4.8,4.8,0,0,0,1.59,3.86,6.1,6.1,0,0,0,4.18,1.37,8.11,8.11,0,0,0,4.76-1.89,2.49,2.49,0,0,0,2.49,1.87,6.76,6.76,0,0,0,1.55-.32,18.85,18.85,0,0,0,2-.63Zm-6.16-1.28a5.41,5.41,0,0,1-3,.72,3.34,3.34,0,0,1-2.4-.84,3.89,3.89,0,0,1-.88-2.87,3.43,3.43,0,0,1,1.33-3c.89-.6,2.54-.9,5-.9Z"/><path class="cls-1" d="M74.06,41.84a11.38,11.38,0,0,1-3,1.32,12,12,0,0,1-3.52.54,9.3,9.3,0,0,1-6.69-2.38A8.31,8.31,0,0,1,58.37,35a9.13,9.13,0,0,1,2.84-7,10.12,10.12,0,0,1,7.23-2.67A14.08,14.08,0,0,1,74,26.48q-.63,2.52-1.14,5.14l-.76.11-1.56-4.5a6.35,6.35,0,0,0-2-.3A5.55,5.55,0,0,0,64,28.88,7.82,7.82,0,0,0,62.34,34c0,2.51.62,4.37,1.84,5.57s3.17,1.8,5.83,1.8a23.15,23.15,0,0,0,3.93-.36Z"/><path class="cls-2" d="M120.89,22a18.29,18.29,0,0,1-10.82,3.45h0c-3.39-.1-6.31-1.42-7.94-3.84a8.09,8.09,0,0,1-1.19-5.76,11.49,11.49,0,0,1,.64-2.43l2.21-5.73a6.18,6.18,0,0,1,5.3-3.58c2.22,0,3.49,1.48,2.79,3.45l-2.06,5.85a2.89,2.89,0,0,0,.23,2.77,3.31,3.31,0,0,0,2.7,1.2,6.22,6.22,0,0,0,3.54-1.16,5.4,5.4,0,0,0,2.12-2.82L121,5a17,17,0,0,0-12.13-5C99.6,0,92.13,7.19,92.13,16.07s7.47,16.07,16.69,16.07a16.46,16.46,0,0,0,16.64-14.73A18.26,18.26,0,0,1,120.89,22Z"/></g></g></svg>